<svg width="256" height="256" viewBox="0 0 256 256" fill="none" xmlns="http://www.w3.org/2000/svg">
<rect width="256" height="256" fill="white"/>
<path d="M53.1818 162.455C46.8788 162.455 41.3485 160.955 36.5909 157.955C31.8636 154.955 28.1667 150.758 25.5 145.364C22.8636 139.97 21.5455 133.667 21.5455 126.455C21.5455 119.182 22.8636 112.833 25.5 107.409C28.1667 101.985 31.8636 97.7727 36.5909 94.7727C41.3485 91.7727 46.8788 90.2727 53.1818 90.2727C59.4848 90.2727 65 91.7727 69.7273 94.7727C74.4849 97.7727 78.1818 101.985 80.8182 107.409C83.4849 112.833 84.8182 119.182 84.8182 126.455C84.8182 133.667 83.4849 139.97 80.8182 145.364C78.1818 150.758 74.4849 154.955 69.7273 157.955C65 160.955 59.4848 162.455 53.1818 162.455ZM53.1818 152.818C57.9697 152.818 61.9091 151.591 65 149.136C68.0909 146.682 70.3788 143.455 71.8636 139.455C73.3485 135.455 74.0909 131.121 74.0909 126.455C74.0909 121.788 73.3485 117.439 71.8636 113.409C70.3788 109.379 68.0909 106.121 65 103.636C61.9091 101.152 57.9697 99.9091 53.1818 99.9091C48.3939 99.9091 44.4545 101.152 41.3636 103.636C38.2727 106.121 35.9848 109.379 34.5 113.409C33.0152 117.439 32.2727 121.788 32.2727 126.455C32.2727 131.121 33.0152 135.455 34.5 139.455C35.9848 143.455 38.2727 146.682 41.3636 149.136C44.4545 151.591 48.3939 152.818 53.1818 152.818ZM129.557 162.455C123.011 162.455 117.375 160.909 112.648 157.818C107.92 154.727 104.284 150.47 101.739 145.045C99.1932 139.621 97.9205 133.424 97.9205 126.455C97.9205 119.364 99.2235 113.106 101.83 107.682C104.466 102.227 108.133 97.9697 112.83 94.9091C117.557 91.8182 123.072 90.2727 129.375 90.2727C134.284 90.2727 138.708 91.1818 142.648 93C146.587 94.8182 149.814 97.3636 152.33 100.636C154.845 103.909 156.405 107.727 157.011 112.091H146.284C145.466 108.909 143.648 106.091 140.83 103.636C138.042 101.152 134.284 99.9091 129.557 99.9091C125.375 99.9091 121.708 101 118.557 103.182C115.436 105.333 112.996 108.379 111.239 112.318C109.511 116.227 108.648 120.818 108.648 126.091C108.648 131.485 109.496 136.182 111.193 140.182C112.92 144.182 115.345 147.288 118.466 149.5C121.617 151.712 125.314 152.818 129.557 152.818C132.345 152.818 134.875 152.333 137.148 151.364C139.42 150.394 141.345 149 142.92 147.182C144.496 145.364 145.617 143.182 146.284 140.636H157.011C156.405 144.758 154.905 148.47 152.511 151.773C150.148 155.045 147.011 157.652 143.102 159.591C139.223 161.5 134.708 162.455 129.557 162.455ZM201.057 162.455C194.754 162.455 189.223 160.955 184.466 157.955C179.739 154.955 176.042 150.758 173.375 145.364C170.739 139.97 169.42 133.667 169.42 126.455C169.42 119.182 170.739 112.833 173.375 107.409C176.042 101.985 179.739 97.7727 184.466 94.7727C189.223 91.7727 194.754 90.2727 201.057 90.2727C207.36 90.2727 212.875 91.7727 217.602 94.7727C222.36 97.7727 226.057 101.985 228.693 107.409C231.36 112.833 232.693 119.182 232.693 126.455C232.693 133.667 231.36 139.97 228.693 145.364C226.057 150.758 222.36 154.955 217.602 157.955C212.875 160.955 207.36 162.455 201.057 162.455ZM201.057 152.818C205.845 152.818 209.784 151.591 212.875 149.136C215.966 146.682 218.254 143.455 219.739 139.455C221.223 135.455 221.966 131.121 221.966 126.455C221.966 121.788 221.223 117.439 219.739 113.409C218.254 109.379 215.966 106.121 212.875 103.636C209.784 101.152 205.845 99.9091 201.057 99.9091C196.269 99.9091 192.33 101.152 189.239 103.636C186.148 106.121 183.86 109.379 182.375 113.409C180.89 117.439 180.148 121.788 180.148 126.455C180.148 131.121 180.89 135.455 182.375 139.455C183.86 143.455 186.148 146.682 189.239 149.136C192.33 151.591 196.269 152.818 201.057 152.818Z" fill="#2A2A36"/>
<rect x="32" y="99" width="43" height="25" fill="#2A2A36"/>
<rect x="179" y="99" width="43" height="25" fill="#2A2A36"/>
<rect x="42" y="116" width="24" height="24" rx="12" fill="#2A2A36"/>
<rect x="189" y="116" width="24" height="24" rx="12" fill="#2A2A36"/>
</svg>
